{"accessors":[{"bufferView":2,"componentType":5126,"count":9543,"max":[9.948929786682129,10.095590591430664,4.977816104888916],"min":[0,0.016103267669677734,0.1021881103515625],"type":"VEC3","byteOffset":0},{"bufferView":2,"byteOffset":114516,"componentType":5126,"count":9543,"max":[0.9994074106216431,0.9999919533729553,0.9999996423721313],"min":[-0.9991863965988159,-0.9995521306991577,-0.999829888343811],"type":"VEC3"},{"bufferView":3,"componentType":5126,"count":9543,"max":[0.9965081214904785,0.9994529485702515,0.9996002912521362,1],"min":[-0.9941644668579102,-0.9403326511383057,-0.9999126195907593,1],"type":"VEC4","byteOffset":0},{"bufferView":1,"componentType":5126,"count":9543,"max":[0.9959729909896851,0.9958699941635132],"min":[0.0039059999398887157,0.0039059999398887157],"type":"VEC2","byteOffset":0},{"bufferView":0,"componentType":5125,"count":51630,"max":[9542],"min":[0],"type":"SCALAR","byteOffset":0},{"bufferView":2,"byteOffset":229032,"componentType":5126,"count":9947,"max":[9.853202819824219,10.096480369567871,2.4216790199279785],"min":[0,0,0],"type":"VEC3"},{"bufferView":2,"byteOffset":348396,"componentType":5126,"count":9947,"max":[0.9999547600746155,0.9998126029968262,0.980345606803894],"min":[-0.9995022416114807,-0.9999085664749146,-0.9999760985374451],"type":"VEC3"},{"bufferView":3,"byteOffset":152688,"componentType":5126,"count":9947,"max":[0.9993143677711487,0.9999889135360718,0.9999833703041077,1],"min":[-0.9998776316642761,-0.9976975321769714,-0.9998268485069275,1],"type":"VEC4"},{"bufferView":1,"byteOffset":76344,"componentType":5126,"count":9947,"max":[0.9837049841880798,0.9821500182151794],"min":[0.0039059999398887157,0.0039059999398887157],"type":"VEC2"},{"bufferView":0,"byteOffset":206520,"componentType":5125,"count":53370,"max":[9946],"min":[0],"type":"SCALAR"}],"asset":{"extras":{"author":"epipolar (https://sketchfab.com/jameswhite)","license":"CC-BY-4.0 (http://creativecommons.org/licenses/by/4.0/)","source":"https://sketchfab.com/models/f9b8171f821c41adbe23da367c16bc73","title":"Portobello Mushroom"},"generator":"Sketchfab-3.18.7","version":"2.0"},"bufferViews":[{"buffer":0,"byteLength":420000,"byteOffset":0,"name":"floatBufferViews","target":34963},{"buffer":0,"byteLength":155920,"byteOffset":420000,"byteStride":8,"name":"floatBufferViews","target":34962},{"buffer":0,"byteLength":467760,"byteOffset":575920,"byteStride":12,"name":"floatBufferViews","target":34962},{"buffer":0,"byteLength":311840,"byteOffset":1043680,"byteStride":16,"name":"floatBufferViews","target":34962},{"buffer":0,"byteOffset":1355520,"byteLength":160876},{"buffer":0,"byteOffset":1516396,"byteLength":141124}],"buffers":[{"byteLength":1657520,"uri":"data:application/octet-stream;base64,"}],"extensionsUsed":["KHR_materials_unlit"],"images":[{"bufferView":4,"mimeType":"image/jpeg"},{"bufferView":5,"mimeType":"image/jpeg"}],"materials":[{"doubleSided":true,"emissiveFactor":[0,0,0],"extensions":{"KHR_materials_unlit":{}},"name":"material_0","pbrMetallicRoughness":{"baseColorFactor":[1,1,1,1],"baseColorTexture":{"index":0,"texCoord":0},"metallicFactor":0,"roughnessFactor":1},"alphaMode":"OPAQUE"},{"doubleSided":true,"emissiveFactor":[0,0,0],"extensions":{"KHR_materials_unlit":{}},"name":"material_1","pbrMetallicRoughness":{"baseColorFactor":[1,1,1,1],"baseColorTexture":{"index":1,"texCoord":0},"metallicFactor":0,"roughnessFactor":1},"alphaMode":"OPAQUE"}],"meshes":[{"primitives":[{"attributes":{"NORMAL":1,"POSITION":0,"TANGENT":2,"TEXCOORD_0":3},"indices":4,"material":0,"mode":4}]},{"primitives":[{"attributes":{"NORMAL":6,"POSITION":5,"TANGENT":7,"TEXCOORD_0":8},"indices":9,"material":1,"mode":4}]}],"nodes":[{"children":[1],"name":"RootNode (gltf orientation matrix)","rotation":[-0.7071067811865475,0,0,0.7071067811865476],"translation":[0,0,0],"scale":[1,1,1]},{"children":[2],"name":"RootNode (model correction matrix)"},{"children":[3,4],"matrix":[1,0,0,0,0,1,0,0,0,0,1,0,-4.9744648933410645,-5.0482401847839355,-2.488908052444458,1],"name":"model.obj.cleaner.gles"},{"mesh":0,"name":""},{"mesh":1,"name":""}],"samplers":[{"magFilter":9729,"minFilter":9987,"wrapS":10497,"wrapT":10497}],"scene":0,"scenes":[{"name":"OSG_Scene","nodes":[0]}],"textures":[{"sampler":0,"source":0},{"sampler":0,"source":1}]}
